<svg width="166" height="141" viewBox="0 0 166 141" fill="none" xmlns="http://www.w3.org/2000/svg">
<path opacity="0.05" d="M95.1976 0.0844248L105.481 49.3429C99.7383 53.337 95.6057 58.8093 93.0836 65.7599C90.484 72.4352 90.3081 79.7653 92.556 87.7505C95.3465 97.663 101.208 105.225 110.14 110.437C118.994 115.374 128.401 116.44 138.361 113.637C148.321 110.833 155.928 104.977 161.184 96.0678C166.085 86.9617 167.14 77.4523 164.35 67.5397C162.877 62.3081 160.729 57.8608 157.906 54.1978C154.807 50.6128 150.939 46.9471 146.301 43.2007L95.1976 0.0844248ZM4.31437 25.6691L14.5982 74.9276C8.85505 78.9217 4.72245 84.394 2.20033 91.3446C-0.399319 98.0199 -0.575167 105.35 1.67275 113.335C4.46325 123.248 10.3245 130.81 19.2564 136.022C28.1108 140.959 37.5179 142.025 47.4777 139.221C57.4375 136.418 65.045 130.561 70.3004 121.653C75.2015 112.546 76.2569 103.037 73.4664 93.1244C71.9936 87.8928 69.8459 83.4455 67.0232 79.7825C63.9239 76.1975 60.0553 72.5318 55.4177 68.7855L4.31437 25.6691Z" fill="#ffff"/>
</svg>
