<svg width="100" height="85" viewBox="0 0 100 85" fill="none" xmlns="http://www.w3.org/2000/svg">
<path opacity="0.05" d="M57.2822 0.291637L63.4138 29.6617C59.9895 32.0432 57.5255 35.3061 56.0217 39.4503C54.4717 43.4304 54.3668 47.801 55.7071 52.5621C57.3709 58.4724 60.8656 62.9814 66.1913 66.089C71.4706 69.0325 77.0796 69.6683 83.0181 67.9966C88.9566 66.3248 93.4925 62.8331 96.626 57.5213C99.5483 52.0918 100.178 46.4218 98.5137 40.5115C97.6356 37.3922 96.355 34.7405 94.672 32.5565C92.824 30.4189 90.5175 28.2333 87.7523 25.9995L57.2822 0.291637ZM3.09345 15.5464L9.22511 44.9165C5.80082 47.298 3.33677 50.5608 1.83297 54.7051C0.282943 58.6852 0.178093 63.0558 1.5184 67.8169C3.18223 73.7272 6.67694 78.2362 12.0025 81.3438C17.2819 84.2872 22.8909 84.9231 28.8294 83.2513C34.7678 81.5796 39.3038 78.0878 42.4373 72.7761C45.3596 67.3465 45.9888 61.6766 44.325 55.7663C43.4469 52.6469 42.1663 49.9953 40.4833 47.8113C38.6353 45.6737 36.3287 43.488 33.5635 41.2543L3.09345 15.5464Z" fill="#000002"/>
</svg>
